<svg width="1024" height="1024" viewBox="0 0 1024 1024" xmlns="http://www.w3.org/2000/svg">
  <defs>
    <linearGradient id="bg" x1="512" y1="100" x2="512" y2="924" gradientUnits="userSpaceOnUse">
      <stop offset="0" stop-color="#333338"/>
      <stop offset="1" stop-color="#1a1a1e"/>
    </linearGradient>
    <clipPath id="squircle">
      <rect x="100" y="100" width="824" height="824" rx="186"/>
    </clipPath>
  </defs>

  <!-- macOS rounded-square background (HUD dark) -->
  <g clip-path="url(#squircle)">
    <rect x="100" y="100" width="824" height="824" fill="url(#bg)"/>
  </g>
  <rect x="100" y="100" width="824" height="824" rx="186" fill="none" stroke="#ffffff" stroke-opacity="0.07" stroke-width="6"/>

  <!-- wordmark "ccglance" (DejaVu Sans Mono Bold, outlined) -->
  <g>
    <g transform="translate(162.8,553) scale(0.070801,-0.070801)"><path d="M1061 57Q987 14 902.0 -7.5Q817 -29 719 -29Q460 -29 314.0 127.0Q168 283 168 559Q168 836 315.0 992.5Q462 1149 721 1149Q811 1149 894.5 1128.0Q978 1107 1061 1063V795Q997 850 920.5 879.5Q844 909 762 909Q619 909 542.0 818.0Q465 727 465 559Q465 391 542.0 301.0Q619 211 762 211Q847 211 921.0 239.5Q995 268 1061 326Z" fill="#d97757"/></g>
    <g transform="translate(250.1,553) scale(0.070801,-0.070801)"><path d="M1061 57Q987 14 902.0 -7.5Q817 -29 719 -29Q460 -29 314.0 127.0Q168 283 168 559Q168 836 315.0 992.5Q462 1149 721 1149Q811 1149 894.5 1128.0Q978 1107 1061 1063V795Q997 850 920.5 879.5Q844 909 762 909Q619 909 542.0 818.0Q465 727 465 559Q465 391 542.0 301.0Q619 211 762 211Q847 211 921.0 239.5Q995 268 1061 326Z" fill="#d97757"/></g>
    <g transform="translate(337.4,553) scale(0.070801,-0.070801)"><path d="M803 578Q803 728 746.0 818.5Q689 909 596 909Q504 909 447.5 819.0Q391 729 391 578Q391 426 447.5 336.0Q504 246 596 246Q689 246 746.0 336.5Q803 427 803 578ZM1096 84Q1096 -185 974.5 -304.5Q853 -424 580 -424Q488 -424 398.0 -410.5Q308 -397 215 -369V-100Q298 -146 384.0 -168.0Q470 -190 561 -190Q685 -190 744.0 -131.5Q803 -73 803 51V172Q760 92 689.0 53.0Q618 14 516 14Q324 14 211.0 164.0Q98 314 98 571Q98 837 211.0 993.0Q324 1149 514 1149Q610 1149 685.0 1104.0Q760 1059 803 977V1120H1096Z" fill="#e8e8ec"/></g>
    <g transform="translate(424.7,553) scale(0.070801,-0.070801)"><path d="M387 467V1331H90V1556H680V467Q680 335 721.0 280.0Q762 225 860 225H1094V0H778Q569 0 478.0 108.0Q387 216 387 467Z" fill="#e8e8ec"/></g>
    <g transform="translate(512.0,553) scale(0.070801,-0.070801)"><path d="M700 526Q536 526 471.0 484.0Q406 442 406 340Q406 264 451.0 219.0Q496 174 573 174Q689 174 753.0 261.5Q817 349 817 506V526ZM1108 639V0H817V125Q764 51 681.0 11.0Q598 -29 498 -29Q307 -29 200.5 72.0Q94 173 94 354Q94 550 221.0 643.5Q348 737 614 737H817V786Q817 857 765.5 893.5Q714 930 614 930Q509 930 410.5 903.5Q312 877 205 819V1069Q302 1109 402.0 1128.0Q502 1147 614 1147Q887 1147 997.5 1036.0Q1108 925 1108 639Z" fill="#e8e8ec"/></g>
    <g transform="translate(599.3,553) scale(0.070801,-0.070801)"><path d="M1071 727V0H780V682Q780 804 745.5 856.5Q711 909 633 909Q554 909 508.5 838.0Q463 767 463 641V0H172V1120H463V952Q494 1045 569.0 1096.0Q644 1147 750 1147Q909 1147 990.0 1041.5Q1071 936 1071 727Z" fill="#e8e8ec"/></g>
    <g transform="translate(686.6,553) scale(0.070801,-0.070801)"><path d="M1061 57Q987 14 902.0 -7.5Q817 -29 719 -29Q460 -29 314.0 127.0Q168 283 168 559Q168 836 315.0 992.5Q462 1149 721 1149Q811 1149 894.5 1128.0Q978 1107 1061 1063V795Q997 850 920.5 879.5Q844 909 762 909Q619 909 542.0 818.0Q465 727 465 559Q465 391 542.0 301.0Q619 211 762 211Q847 211 921.0 239.5Q995 268 1061 326Z" fill="#e8e8ec"/></g>
    <g transform="translate(773.9,553) scale(0.070801,-0.070801)"><path d="M1102 55Q1000 13 894.0 -8.0Q788 -29 670 -29Q389 -29 240.5 121.5Q92 272 92 555Q92 829 235.0 988.0Q378 1147 625 1147Q874 1147 1011.5 999.5Q1149 852 1149 584V465H390Q391 333 468.0 268.0Q545 203 698 203Q799 203 897.0 232.0Q995 261 1102 324ZM854 685Q852 801 794.5 860.5Q737 920 625 920Q524 920 464.0 858.5Q404 797 393 684Z" fill="#e8e8ec"/></g>
  </g>
</svg>
